<mxfile host="Electron" modified="2023-11-26T03:10:17.123Z" agent="Mozilla/5.0 (Windows NT 10.0; Win64; x64) AppleWebKit/537.36 (KHTML, like Gecko) draw.io/22.1.2 Chrome/114.0.5735.289 Electron/25.9.4 Safari/537.36" etag="A5KdFYvjFws0aOJhjiOI" version="22.1.2" type="device">
  <diagram name="第 1 页" id="H-cbhvaH35qIghtOsvY_">
    <mxGraphModel dx="802" dy="1017" grid="1" gridSize="10" guides="1" tooltips="1" connect="1" arrows="1" fold="1" page="1" pageScale="1" pageWidth="827" pageHeight="1169" math="0" shadow="0">
      <root>
        <mxCell id="0" />
        <mxCell id="1" parent="0" />
        <mxCell id="93n5Ftndzx-IgGin-ARA-1" value="" style="swimlane;startSize=0;" vertex="1" parent="1">
          <mxGeometry x="130" y="160" width="540" height="700" as="geometry">
            <mxRectangle x="130" y="160" width="50" height="40" as="alternateBounds" />
          </mxGeometry>
        </mxCell>
        <mxCell id="93n5Ftndzx-IgGin-ARA-2" value="&lt;font style=&quot;font-size: 24px;&quot;&gt;看病预约应用系统&lt;/font&gt;" style="text;html=1;align=center;verticalAlign=middle;resizable=0;points=[];autosize=1;strokeColor=none;fillColor=none;" vertex="1" parent="93n5Ftndzx-IgGin-ARA-1">
          <mxGeometry x="160" y="50" width="220" height="40" as="geometry" />
        </mxCell>
        <mxCell id="93n5Ftndzx-IgGin-ARA-3" value="账号注册" style="ellipse;whiteSpace=wrap;html=1;" vertex="1" parent="93n5Ftndzx-IgGin-ARA-1">
          <mxGeometry x="100" y="110" width="120" height="80" as="geometry" />
        </mxCell>
        <mxCell id="93n5Ftndzx-IgGin-ARA-5" value="账号登录" style="ellipse;whiteSpace=wrap;html=1;" vertex="1" parent="93n5Ftndzx-IgGin-ARA-1">
          <mxGeometry x="100" y="230" width="120" height="80" as="geometry" />
        </mxCell>
        <mxCell id="93n5Ftndzx-IgGin-ARA-6" value="预约挂号" style="ellipse;whiteSpace=wrap;html=1;" vertex="1" parent="93n5Ftndzx-IgGin-ARA-1">
          <mxGeometry x="100" y="350" width="120" height="80" as="geometry" />
        </mxCell>
        <mxCell id="93n5Ftndzx-IgGin-ARA-7" value="查看已挂号信息" style="ellipse;whiteSpace=wrap;html=1;" vertex="1" parent="93n5Ftndzx-IgGin-ARA-1">
          <mxGeometry x="100" y="470" width="120" height="80" as="geometry" />
        </mxCell>
        <mxCell id="93n5Ftndzx-IgGin-ARA-8" value="选择科室" style="ellipse;whiteSpace=wrap;html=1;" vertex="1" parent="93n5Ftndzx-IgGin-ARA-1">
          <mxGeometry x="340" y="110" width="120" height="80" as="geometry" />
        </mxCell>
        <mxCell id="93n5Ftndzx-IgGin-ARA-9" value="选择医生" style="ellipse;whiteSpace=wrap;html=1;" vertex="1" parent="93n5Ftndzx-IgGin-ARA-1">
          <mxGeometry x="340" y="230" width="120" height="80" as="geometry" />
        </mxCell>
        <mxCell id="93n5Ftndzx-IgGin-ARA-10" value="选择预约时间" style="ellipse;whiteSpace=wrap;html=1;" vertex="1" parent="93n5Ftndzx-IgGin-ARA-1">
          <mxGeometry x="340" y="350" width="120" height="80" as="geometry" />
        </mxCell>
        <mxCell id="93n5Ftndzx-IgGin-ARA-11" value="在线支付" style="ellipse;whiteSpace=wrap;html=1;" vertex="1" parent="93n5Ftndzx-IgGin-ARA-1">
          <mxGeometry x="340" y="470" width="120" height="80" as="geometry" />
        </mxCell>
        <mxCell id="93n5Ftndzx-IgGin-ARA-12" value="查看医生介绍" style="ellipse;whiteSpace=wrap;html=1;" vertex="1" parent="93n5Ftndzx-IgGin-ARA-1">
          <mxGeometry x="340" y="590" width="120" height="80" as="geometry" />
        </mxCell>
        <mxCell id="93n5Ftndzx-IgGin-ARA-17" value="&amp;lt;&amp;lt;include&amp;gt;&amp;gt;" style="endArrow=open;endSize=12;dashed=1;html=1;rounded=0;exitX=1;exitY=0.5;exitDx=0;exitDy=0;entryX=0;entryY=0.5;entryDx=0;entryDy=0;" edge="1" parent="93n5Ftndzx-IgGin-ARA-1" source="93n5Ftndzx-IgGin-ARA-6" target="93n5Ftndzx-IgGin-ARA-8">
          <mxGeometry x="0.1333" y="9" width="160" relative="1" as="geometry">
            <mxPoint x="230" y="200" as="sourcePoint" />
            <mxPoint x="390" y="200" as="targetPoint" />
            <mxPoint as="offset" />
          </mxGeometry>
        </mxCell>
        <mxCell id="93n5Ftndzx-IgGin-ARA-19" value="&amp;lt;&amp;lt;include&amp;gt;&amp;gt;" style="endArrow=open;endSize=12;dashed=1;html=1;rounded=0;exitX=1;exitY=0.5;exitDx=0;exitDy=0;entryX=0;entryY=0.5;entryDx=0;entryDy=0;" edge="1" parent="93n5Ftndzx-IgGin-ARA-1" source="93n5Ftndzx-IgGin-ARA-6" target="93n5Ftndzx-IgGin-ARA-10">
          <mxGeometry x="0.1333" y="9" width="160" relative="1" as="geometry">
            <mxPoint x="240" y="410" as="sourcePoint" />
            <mxPoint x="360" y="170" as="targetPoint" />
            <mxPoint as="offset" />
          </mxGeometry>
        </mxCell>
        <mxCell id="93n5Ftndzx-IgGin-ARA-20" value="&amp;lt;&amp;lt;include&amp;gt;&amp;gt;" style="endArrow=open;endSize=12;dashed=1;html=1;rounded=0;exitX=1;exitY=0.5;exitDx=0;exitDy=0;entryX=0;entryY=0.5;entryDx=0;entryDy=0;" edge="1" parent="93n5Ftndzx-IgGin-ARA-1" source="93n5Ftndzx-IgGin-ARA-6" target="93n5Ftndzx-IgGin-ARA-11">
          <mxGeometry x="0.1333" y="9" width="160" relative="1" as="geometry">
            <mxPoint x="250" y="420" as="sourcePoint" />
            <mxPoint x="370" y="180" as="targetPoint" />
            <mxPoint as="offset" />
          </mxGeometry>
        </mxCell>
        <mxCell id="93n5Ftndzx-IgGin-ARA-21" value="&amp;lt;&amp;lt;include&amp;gt;&amp;gt;" style="endArrow=open;endSize=12;dashed=1;html=1;rounded=0;exitX=1;exitY=0.5;exitDx=0;exitDy=0;entryX=0;entryY=0.5;entryDx=0;entryDy=0;" edge="1" parent="93n5Ftndzx-IgGin-ARA-1" source="93n5Ftndzx-IgGin-ARA-6" target="93n5Ftndzx-IgGin-ARA-12">
          <mxGeometry x="0.1333" y="9" width="160" relative="1" as="geometry">
            <mxPoint x="260" y="430" as="sourcePoint" />
            <mxPoint x="380" y="190" as="targetPoint" />
            <mxPoint as="offset" />
          </mxGeometry>
        </mxCell>
        <mxCell id="93n5Ftndzx-IgGin-ARA-4" value="patient" style="shape=umlActor;verticalLabelPosition=bottom;verticalAlign=top;html=1;outlineConnect=0;" vertex="1" parent="1">
          <mxGeometry x="50" y="430" width="30" height="60" as="geometry" />
        </mxCell>
        <mxCell id="93n5Ftndzx-IgGin-ARA-13" value="" style="endArrow=none;html=1;rounded=0;entryX=0;entryY=0.5;entryDx=0;entryDy=0;exitX=1;exitY=0.3333333333333333;exitDx=0;exitDy=0;exitPerimeter=0;" edge="1" parent="1" source="93n5Ftndzx-IgGin-ARA-4" target="93n5Ftndzx-IgGin-ARA-3">
          <mxGeometry width="50" height="50" relative="1" as="geometry">
            <mxPoint x="100" y="390" as="sourcePoint" />
            <mxPoint x="150" y="410" as="targetPoint" />
          </mxGeometry>
        </mxCell>
        <mxCell id="93n5Ftndzx-IgGin-ARA-14" value="" style="endArrow=none;html=1;rounded=0;exitX=1;exitY=0.3333333333333333;exitDx=0;exitDy=0;exitPerimeter=0;entryX=0;entryY=0.5;entryDx=0;entryDy=0;" edge="1" parent="1" source="93n5Ftndzx-IgGin-ARA-4" target="93n5Ftndzx-IgGin-ARA-5">
          <mxGeometry width="50" height="50" relative="1" as="geometry">
            <mxPoint x="140" y="480" as="sourcePoint" />
            <mxPoint x="190" y="430" as="targetPoint" />
          </mxGeometry>
        </mxCell>
        <mxCell id="93n5Ftndzx-IgGin-ARA-15" value="" style="endArrow=none;html=1;rounded=0;entryX=0;entryY=0.5;entryDx=0;entryDy=0;exitX=1;exitY=0.3333333333333333;exitDx=0;exitDy=0;exitPerimeter=0;" edge="1" parent="1" source="93n5Ftndzx-IgGin-ARA-4" target="93n5Ftndzx-IgGin-ARA-6">
          <mxGeometry width="50" height="50" relative="1" as="geometry">
            <mxPoint x="110" y="560" as="sourcePoint" />
            <mxPoint x="160" y="510" as="targetPoint" />
          </mxGeometry>
        </mxCell>
        <mxCell id="93n5Ftndzx-IgGin-ARA-16" value="" style="endArrow=none;html=1;rounded=0;entryX=0;entryY=0.5;entryDx=0;entryDy=0;exitX=1;exitY=0.3333333333333333;exitDx=0;exitDy=0;exitPerimeter=0;" edge="1" parent="1" source="93n5Ftndzx-IgGin-ARA-4" target="93n5Ftndzx-IgGin-ARA-7">
          <mxGeometry width="50" height="50" relative="1" as="geometry">
            <mxPoint x="100" y="610" as="sourcePoint" />
            <mxPoint x="150" y="560" as="targetPoint" />
          </mxGeometry>
        </mxCell>
        <mxCell id="93n5Ftndzx-IgGin-ARA-18" value="&amp;lt;&amp;lt;include&amp;gt;&amp;gt;" style="endArrow=open;endSize=12;dashed=1;html=1;rounded=0;entryX=0;entryY=0.5;entryDx=0;entryDy=0;" edge="1" parent="1" target="93n5Ftndzx-IgGin-ARA-9">
          <mxGeometry x="0.25" y="-7" width="160" relative="1" as="geometry">
            <mxPoint x="350" y="550" as="sourcePoint" />
            <mxPoint x="480" y="320" as="targetPoint" />
            <mxPoint as="offset" />
          </mxGeometry>
        </mxCell>
      </root>
    </mxGraphModel>
  </diagram>
</mxfile>
